Pacifico-Regular.ufo
<glyph name="exclam" format="1">
  <advance width="319"/>
  <unicode hex="0021"/>
  <outline>
    <contour>
      <point x="389" y="610" type="curve" smooth="yes"/>
      <point x="389" y="631"/>
      <point x="375" y="648"/>
      <point x="342" y="648" type="curve" smooth="yes"/>
      <point x="314" y="648"/>
      <point x="296" y="628"/>
      <point x="289" y="601" type="curve" smooth="yes"/>
      <point x="194" y="188" type="line" smooth="yes"/>
      <point x="194" y="187"/>
      <point x="193" y="185"/>
      <point x="193" y="184" type="curve" smooth="yes"/>
      <point x="193" y="176"/>
      <point x="201" y="168"/>
      <point x="210" y="168" type="curve" smooth="yes"/>
      <point x="218" y="168"/>
      <point x="228" y="174"/>
      <point x="234" y="192" type="curve" smooth="yes"/>
      <point x="364" y="526" type="line" smooth="yes"/>
      <point x="376" y="557"/>
      <point x="389" y="587"/>
    </contour>
    <contour>
      <point x="181" y="-0" type="curve" smooth="yes"/>
      <point x="220" y="0"/>
      <point x="242" y="28"/>
      <point x="242" y="65" type="curve" smooth="yes"/>
      <point x="242" y="101"/>
      <point x="223" y="121"/>
      <point x="187" y="121" type="curve" smooth="yes"/>
      <point x="147" y="121"/>
      <point x="125" y="94"/>
      <point x="125" y="55" type="curve" smooth="yes"/>
      <point x="125" y="19"/>
      <point x="145" y="0"/>
    </contour>
  </outline>
</glyph>
<glyph name="dollar" format="1">
  <advance width="593"/>
  <unicode hex="0024"/>
  <outline>
    <contour>
      <point x="283" y="-77" type="curve" smooth="yes"/>
      <point x="306" y="-77"/>
      <point x="323" y="-73"/>
      <point x="329" y="-54" type="curve"/>
      <point x="339" y="1" type="line"/>
      <point x="441" y="11"/>
      <point x="525" y="62"/>
      <point x="525" y="173" type="curve" smooth="yes"/>
      <point x="525" y="258"/>
      <point x="453" y="298"/>
      <point x="397" y="330" type="curve"/>
      <point x="430" y="521" type="line"/>
      <point x="461" y="515"/>
      <point x="494" y="500"/>
      <point x="498" y="470" type="curve" smooth="yes"/>
      <point x="502" y="441"/>
      <point x="524" y="426"/>
      <point x="545" y="426" type="curve" smooth="yes"/>
      <point x="564" y="426"/>
      <point x="580" y="438"/>
      <point x="580" y="463" type="curve" smooth="yes"/>
      <point x="580" y="470" type="line"/>
      <point x="571" y="543"/>
      <point x="505" y="578"/>
      <point x="442" y="591" type="curve"/>
      <point x="447" y="622" type="line" smooth="yes"/>
      <point x="448" y="629"/>
      <point x="449" y="636"/>
      <point x="449" y="644" type="curve" smooth="yes"/>
      <point x="449" y="661"/>
      <point x="444" y="678"/>
      <point x="427" y="678" type="curve" smooth="yes"/>
      <point x="400" y="678"/>
      <point x="381" y="662"/>
      <point x="378" y="640" type="curve" smooth="yes"/>
      <point x="371" y="596" type="line"/>
      <point x="271" y="592"/>
      <point x="169" y="542"/>
      <point x="169" y="442" type="curve" smooth="yes"/>
      <point x="169" y="358"/>
      <point x="258" y="322"/>
      <point x="315" y="292" type="curve"/>
      <point x="276" y="72" type="line"/>
      <point x="223" y="76"/>
      <point x="169" y="92"/>
      <point x="169" y="144" type="curve" smooth="yes"/>
      <point x="169" y="181"/>
      <point x="186" y="205"/>
      <point x="221" y="205" type="curve" smooth="yes"/>
      <point x="239" y="205"/>
      <point x="250" y="216"/>
      <point x="250" y="232" type="curve" smooth="yes"/>
      <point x="250" y="254"/>
      <point x="233" y="266"/>
      <point x="211" y="266" type="curve" smooth="yes"/>
      <point x="135" y="266"/>
      <point x="88" y="217"/>
      <point x="88" y="143" type="curve" smooth="yes"/>
      <point x="88" y="45"/>
      <point x="172" y="9"/>
      <point x="263" y="1" type="curve"/>
      <point x="261" y="-11"/>
      <point x="258" y="-26"/>
      <point x="258" y="-39" type="curve" smooth="yes"/>
      <point x="258" y="-59"/>
      <point x="264" y="-77"/>
    </contour>
    <contour>
      <point x="330" y="370" type="curve"/>
      <point x="302" y="387"/>
      <point x="262" y="410"/>
      <point x="262" y="453" type="curve" smooth="yes"/>
      <point x="262" y="500"/>
      <point x="312" y="519"/>
      <point x="357" y="523" type="curve"/>
      <point x="349" y="474"/>
      <point x="339" y="421"/>
    </contour>
    <contour>
      <point x="353" y="77" type="curve"/>
      <point x="384" y="253" type="line"/>
      <point x="410" y="236"/>
      <point x="443" y="214"/>
      <point x="443" y="173" type="curve" smooth="yes"/>
      <point x="443" y="117"/>
      <point x="399" y="88"/>
    </contour>
  </outline>
</glyph>
<glyph name="period" format="1">
  <advance width="202"/>
  <unicode hex="002E"/>
  <outline>
    <contour>
      <point x="101" y="0" type="curve" smooth="yes"/>
      <point x="142" y="0"/>
      <point x="166" y="27"/>
      <point x="166" y="67" type="curve" smooth="yes"/>
      <point x="166" y="104"/>
      <point x="145" y="123"/>
      <point x="107" y="123" type="curve" smooth="yes"/>
      <point x="66" y="123"/>
      <point x="43" y="97"/>
      <point x="43" y="57" type="curve" smooth="yes"/>
      <point x="43" y="20"/>
      <point x="63" y="0"/>
    </contour>
  </outline>
</glyph>
<glyph name="four" format="1">
  <advance width="417"/>
  <unicode hex="0034"/>
  <outline>
    <contour>
      <point x="244" y="-20" type="curve" smooth="yes"/>
      <point x="263" y="-20"/>
      <point x="276" y="-16"/>
      <point x="285" y="21" type="curve" smooth="yes"/>
      <point x="296" y="69" type="line"/>
      <point x="359" y="70" type="line" smooth="yes"/>
      <point x="380" y="71"/>
      <point x="391" y="92"/>
      <point x="391" y="110" type="curve" smooth="yes"/>
      <point x="391" y="123"/>
      <point x="385" y="135"/>
      <point x="373" y="135" type="curve" smooth="yes"/>
      <point x="311" y="135" type="line"/>
      <point x="318" y="167"/>
      <point x="343" y="268"/>
      <point x="350" y="297" type="curve" smooth="yes"/>
      <point x="350" y="299"/>
      <point x="351" y="300"/>
      <point x="351" y="302" type="curve" smooth="yes"/>
      <point x="351" y="316"/>
      <point x="335" y="321"/>
      <point x="320" y="321" type="curve" smooth="yes"/>
      <point x="295" y="321"/>
      <point x="283" y="309"/>
      <point x="277" y="288" type="curve" smooth="yes"/>
      <point x="270" y="263"/>
      <point x="242" y="157"/>
      <point x="237" y="136" type="curve"/>
      <point x="147" y="136" type="line"/>
      <point x="180" y="239"/>
      <point x="222" y="368"/>
      <point x="246" y="449" type="curve" smooth="yes"/>
      <point x="247" y="451"/>
      <point x="247" y="454"/>
      <point x="247" y="456" type="curve" smooth="yes"/>
      <point x="247" y="472"/>
      <point x="229" y="482"/>
      <point x="211" y="482" type="curve" smooth="yes"/>
      <point x="196" y="482"/>
      <point x="181" y="475"/>
      <point x="176" y="459" type="curve" smooth="yes"/>
      <point x="149" y="382"/>
      <point x="90" y="207"/>
      <point x="67" y="130" type="curve" smooth="yes"/>
      <point x="63" y="116"/>
      <point x="60" y="104"/>
      <point x="60" y="95" type="curve" smooth="yes"/>
      <point x="60" y="74"/>
      <point x="72" y="68"/>
      <point x="92" y="68" type="curve" smooth="yes"/>
      <point x="222" y="68" type="line"/>
      <point x="212" y="22" type="line" smooth="yes"/>
      <point x="211" y="16"/>
      <point x="210" y="12"/>
      <point x="210" y="7" type="curve" smooth="yes"/>
      <point x="210" y="-10"/>
      <point x="219" y="-20"/>
    </contour>
  </outline>
</glyph>
<glyph name="five" format="1">
  <advance width="417"/>
  <unicode hex="0035"/>
  <outline>
    <contour>
      <point x="56" y="105" type="curve" smooth="yes"/>
      <point x="56" y="32"/>
      <point x="120" y="-9"/>
      <point x="215" y="-9" type="curve" smooth="yes"/>
      <point x="299" y="-9"/>
      <point x="384" y="38"/>
      <point x="384" y="149" type="curve" smooth="yes"/>
      <point x="384" y="255"/>
      <point x="310" y="297"/>
      <point x="225" y="297" type="curve" smooth="yes"/>
      <point x="210" y="297"/>
      <point x="194" y="296"/>
      <point x="178" y="293" type="curve"/>
      <point x="210" y="392" type="line"/>
      <point x="217" y="392" type="line" smooth="yes"/>
      <point x="272" y="392"/>
      <point x="320" y="381"/>
      <point x="355" y="381" type="curve" smooth="yes"/>
      <point x="392" y="381"/>
      <point x="413" y="396"/>
      <point x="413" y="443" type="curve" smooth="yes"/>
      <point x="413" y="474"/>
      <point x="402" y="483"/>
      <point x="394" y="483" type="curve" smooth="yes"/>
      <point x="391" y="483"/>
      <point x="388" y="482"/>
      <point x="386" y="480" type="curve" smooth="yes"/>
      <point x="369" y="460"/>
      <point x="353" y="454"/>
      <point x="335" y="454" type="curve" smooth="yes"/>
      <point x="302" y="454"/>
      <point x="262" y="476"/>
      <point x="198" y="476" type="curve" smooth="yes"/>
      <point x="111" y="476"/>
      <point x="168" y="428"/>
      <point x="110" y="294" type="curve" smooth="yes"/>
      <point x="105" y="283"/>
      <point x="103" y="273"/>
      <point x="103" y="265" type="curve" smooth="yes"/>
      <point x="103" y="247"/>
      <point x="113" y="235"/>
      <point x="130" y="235" type="curve" smooth="yes"/>
      <point x="147" y="235"/>
      <point x="165" y="239"/>
      <point x="181" y="239" type="curve" smooth="yes"/>
      <point x="252" y="239"/>
      <point x="302" y="211"/>
      <point x="302" y="148" type="curve" smooth="yes"/>
      <point x="302" y="85"/>
      <point x="256" y="56"/>
      <point x="209" y="56" type="curve" smooth="yes"/>
      <point x="156" y="56"/>
      <point x="130" y="77"/>
      <point x="123" y="105" type="curve" smooth="yes"/>
      <point x="122" y="109"/>
      <point x="122" y="112"/>
      <point x="122" y="115" type="curve" smooth="yes"/>
      <point x="122" y="125"/>
      <point x="125" y="133"/>
      <point x="125" y="142" type="curve" smooth="yes"/>
      <point x="125" y="158"/>
      <point x="114" y="164"/>
      <point x="104" y="165" type="curve" smooth="yes"/>
      <point x="80" y="165"/>
      <point x="56" y="148"/>
    </contour>
  </outline>
</glyph>
<glyph name="six" format="1">
  <advance width="398"/>
  <unicode hex="0036"/>
  <outline>
    <contour>
      <point x="57" y="163" type="curve" smooth="yes"/>
      <point x="57" y="49"/>
      <point x="125" y="-12"/>
      <point x="222" y="-12" type="curve" smooth="yes"/>
      <point x="320" y="-12"/>
      <point x="385" y="62"/>
      <point x="385" y="160" type="curve" smooth="yes"/>
      <point x="385" y="253"/>
      <point x="312" y="311"/>
      <point x="239" y="311" type="curve" smooth="yes"/>
      <point x="206" y="311"/>
      <point x="173" y="299"/>
      <point x="148" y="272" type="curve"/>
      <point x="185" y="355"/>
      <point x="258" y="407"/>
      <point x="341" y="445" type="curve" smooth="yes"/>
      <point x="356" y="452"/>
      <point x="365" y="466"/>
      <point x="365" y="482" type="curve" smooth="yes"/>
      <point x="365" y="500"/>
      <point x="353" y="510"/>
      <point x="331" y="510" type="curve" smooth="yes"/>
      <point x="319" y="510"/>
      <point x="311" y="506"/>
      <point x="301" y="501" type="curve" smooth="yes"/>
      <point x="181" y="443"/>
      <point x="57" y="340"/>
    </contour>
    <contour>
      <point x="224" y="58" type="curve" smooth="yes"/>
      <point x="165" y="58"/>
      <point x="134" y="103"/>
      <point x="134" y="149" type="curve" smooth="yes"/>
      <point x="134" y="208"/>
      <point x="168" y="243"/>
      <point x="233" y="243" type="curve" smooth="yes"/>
      <point x="281" y="243"/>
      <point x="306" y="198"/>
      <point x="306" y="153" type="curve" smooth="yes"/>
      <point x="306" y="106"/>
      <point x="279" y="58"/>
    </contour>
  </outline>
</glyph>
<glyph name="seven" format="1">
  <advance width="417"/>
  <unicode hex="0037"/>
  <outline>
    <contour>
      <point x="224" y="21" type="curve" smooth="yes"/>
      <point x="254" y="123"/>
      <point x="314" y="256"/>
      <point x="393" y="380" type="curve" smooth="yes"/>
      <point x="398" y="390"/>
      <point x="426" y="410"/>
      <point x="426" y="435" type="curve" smooth="yes"/>
      <point x="426" y="452"/>
      <point x="420" y="466"/>
      <point x="403" y="466" type="curve" smooth="yes"/>
      <point x="395" y="466"/>
      <point x="363" y="462"/>
      <point x="349" y="462" type="curve" smooth="yes"/>
      <point x="276" y="462"/>
      <point x="208" y="464"/>
      <point x="143" y="464" type="curve" smooth="yes"/>
      <point x="120" y="464"/>
      <point x="106" y="440"/>
      <point x="106" y="418" type="curve" smooth="yes"/>
      <point x="106" y="399"/>
      <point x="117" y="381"/>
      <point x="140" y="381" type="curve" smooth="yes"/>
      <point x="172" y="381"/>
      <point x="202" y="402"/>
      <point x="255" y="403" type="curve" smooth="yes"/>
      <point x="327" y="404" type="line"/>
      <point x="245" y="280"/>
      <point x="168" y="120"/>
      <point x="144" y="34" type="curve" smooth="yes"/>
      <point x="143" y="30"/>
      <point x="143" y="27"/>
      <point x="143" y="24" type="curve" smooth="yes"/>
      <point x="143" y="3"/>
      <point x="163" y="-12"/>
      <point x="183" y="-12" type="curve" smooth="yes"/>
      <point x="200" y="-12"/>
      <point x="217" y="-2"/>
    </contour>
  </outline>
</glyph>
<glyph name="C" format="1">
  <advance width="593"/>
  <unicode hex="0043"/>
  <outline>
    <contour>
      <point x="295" y="-70" type="move" name="bot"/>
    </contour>
    <contour>
      <point x="462" y="671" type="move" name="top"/>
    </contour>
    <contour>
      <point x="58" y="206" type="curve" smooth="yes"/>
      <point x="58" y="-5"/>
      <point x="179" y="-95"/>
      <point x="314" y="-95" type="curve" smooth="yes"/>
      <point x="455" y="-95"/>
      <point x="596" y="-14"/>
      <point x="655" y="115" type="curve" smooth="yes"/>
      <point x="656" y="117"/>
      <point x="657" y="120"/>
      <point x="657" y="122" type="curve" smooth="yes"/>
      <point x="657" y="137"/>
      <point x="637" y="151"/>
      <point x="621" y="151" type="curve" smooth="yes"/>
      <point x="615" y="151"/>
      <point x="609" y="149"/>
      <point x="606" y="144" type="curve" smooth="yes"/>
      <point x="549" y="56"/>
      <point x="454" y="-19"/>
      <point x="334" y="-19" type="curve" smooth="yes"/>
      <point x="213" y="-19"/>
      <point x="153" y="69"/>
      <point x="153" y="218" type="curve" smooth="yes"/>
      <point x="153" y="425"/>
      <point x="300" y="595"/>
      <point x="441" y="595" type="curve" smooth="yes"/>
      <point x="500" y="595"/>
      <point x="537" y="568"/>
      <point x="537" y="518" type="curve" smooth="yes"/>
      <point x="537" y="446"/>
      <point x="483" y="402"/>
      <point x="411" y="382" type="curve" smooth="yes"/>
      <point x="376" y="372"/>
      <point x="353" y="366"/>
      <point x="353" y="343" type="curve" smooth="yes"/>
      <point x="353" y="324"/>
      <point x="365" y="314"/>
      <point x="390" y="314" type="curve" smooth="yes"/>
      <point x="396" y="314"/>
      <point x="403" y="315"/>
      <point x="411" y="316" type="curve" smooth="yes"/>
      <point x="527" y="338"/>
      <point x="613" y="417"/>
      <point x="613" y="524" type="curve" smooth="yes"/>
      <point x="613" y="615"/>
      <point x="548" y="671"/>
      <point x="449" y="671" type="curve" smooth="yes"/>
      <point x="252" y="671"/>
      <point x="58" y="480"/>
    </contour>
  </outline>
</glyph>
<glyph name="G" format="1">
  <advance width="712"/>
  <unicode hex="0047"/>
  <outline>
    <contour>
      <point x="317" y="-321" type="move" name="bot"/>
    </contour>
    <contour>
      <point x="532" y="671" type="move" name="top"/>
    </contour>
    <contour>
      <point x="59" y="200" type="curve" smooth="yes"/>
      <point x="59" y="4"/>
      <point x="190" y="-57"/>
      <point x="327" y="-57" type="curve" smooth="yes"/>
      <point x="445" y="-57"/>
      <point x="564" y="-11"/>
      <point x="592" y="27" type="curve"/>
      <point x="536" y="-176"/>
      <point x="480" y="-238"/>
      <point x="402" y="-238" type="curve" smooth="yes"/>
      <point x="375" y="-238"/>
      <point x="345" y="-231"/>
      <point x="312" y="-219" type="curve" smooth="yes"/>
      <point x="308" y="-218"/>
      <point x="305" y="-217"/>
      <point x="301" y="-217" type="curve" smooth="yes"/>
      <point x="277" y="-217"/>
      <point x="254" y="-242"/>
      <point x="254" y="-267" type="curve" smooth="yes"/>
      <point x="254" y="-284"/>
      <point x="264" y="-301"/>
      <point x="291" y="-311" type="curve" smooth="yes"/>
      <point x="329" y="-325"/>
      <point x="365" y="-332"/>
      <point x="397" y="-332" type="curve" smooth="yes"/>
      <point x="544" y="-332"/>
      <point x="634" y="-185"/>
      <point x="690" y="119" type="curve" smooth="yes"/>
      <point x="693" y="134"/>
      <point x="695" y="147"/>
      <point x="695" y="158" type="curve" smooth="yes"/>
      <point x="695" y="207"/>
      <point x="662" y="219"/>
      <point x="563" y="219" type="curve" smooth="yes"/>
      <point x="532" y="219"/>
      <point x="502" y="208"/>
      <point x="502" y="178" type="curve" smooth="yes"/>
      <point x="502" y="149"/>
      <point x="523" y="142"/>
      <point x="560" y="142" type="curve" smooth="yes"/>
      <point x="598" y="142"/>
      <point x="610" y="140"/>
      <point x="610" y="126" type="curve" smooth="yes"/>
      <point x="610" y="123"/>
      <point x="610" y="120"/>
      <point x="609" y="116" type="curve" smooth="yes"/>
      <point x="603" y="87" type="line"/>
      <point x="518" y="45"/>
      <point x="425" y="17"/>
      <point x="347" y="17" type="curve" smooth="yes"/>
      <point x="239" y="17"/>
      <point x="158" y="69"/>
      <point x="158" y="202" type="curve" smooth="yes"/>
      <point x="158" y="464"/>
      <point x="369" y="594"/>
      <point x="499" y="594" type="curve" smooth="yes"/>
      <point x="557" y="594"/>
      <point x="599" y="568"/>
      <point x="599" y="517" type="curve" smooth="yes"/>
      <point x="599" y="468"/>
      <point x="622" y="462"/>
      <point x="646" y="462" type="curve" smooth="yes"/>
      <point x="673" y="462"/>
      <point x="695" y="473"/>
      <point x="695" y="513" type="curve" smooth="yes"/>
      <point x="695" y="623"/>
      <point x="613" y="676"/>
      <point x="509" y="676" type="curve" smooth="yes"/>
      <point x="321" y="676"/>
      <point x="59" y="506"/>
    </contour>
  </outline>
</glyph>
<glyph name="H" format="1">
  <advance width="767"/>
  <unicode hex="0048"/>
  <outline>
    <contour>
      <point x="522" y="671" type="move" name="top"/>
    </contour>
    <contour>
      <point x="575" y="301" type="curve"/>
      <point x="597" y="390" type="line"/>
      <point x="626" y="513"/>
      <point x="697" y="566"/>
      <point x="746" y="566" type="curve" smooth="yes"/>
      <point x="776" y="566"/>
      <point x="798" y="546"/>
      <point x="798" y="511" type="curve" smooth="yes"/>
      <point x="798" y="507"/>
      <point x="798" y="503"/>
      <point x="797" y="498" type="curve" smooth="yes"/>
      <point x="788" y="429"/>
      <point x="726" y="345"/>
    </contour>
    <contour>
      <point x="74" y="-64" type="curve" smooth="yes"/>
      <point x="74" y="-99"/>
      <point x="98" y="-105"/>
      <point x="122" y="-105" type="curve" smooth="yes"/>
      <point x="154" y="-105"/>
      <point x="164" y="-79"/>
      <point x="176" y="-42" type="curve" smooth="yes"/>
      <point x="255" y="204" type="line"/>
      <point x="277" y="203"/>
      <point x="299" y="203"/>
      <point x="320" y="203" type="curve" smooth="yes"/>
      <point x="376" y="203"/>
      <point x="427" y="207"/>
      <point x="473" y="213" type="curve"/>
      <point x="448" y="118" type="line" smooth="yes"/>
      <point x="437" y="77"/>
      <point x="433" y="42"/>
      <point x="433" y="12" type="curve" smooth="yes"/>
      <point x="433" y="-95"/>
      <point x="492" y="-139"/>
      <point x="570" y="-139" type="curve" smooth="yes"/>
      <point x="629" y="-139"/>
      <point x="698" y="-114"/>
      <point x="760" y="-71" type="curve" smooth="yes"/>
      <point x="768" y="-66"/>
      <point x="771" y="-58"/>
      <point x="771" y="-49" type="curve" smooth="yes"/>
      <point x="771" y="-30"/>
      <point x="756" y="-9"/>
      <point x="740" y="-9" type="curve" smooth="yes"/>
      <point x="738" y="-9"/>
      <point x="735" y="-9"/>
      <point x="733" y="-10" type="curve" smooth="yes"/>
      <point x="690" y="-27"/>
      <point x="629" y="-59"/>
      <point x="583" y="-59" type="curve" smooth="yes"/>
      <point x="546" y="-59"/>
      <point x="519" y="-39"/>
      <point x="519" y="26" type="curve" smooth="yes"/>
      <point x="519" y="53"/>
      <point x="524" y="87"/>
      <point x="534" y="130" type="curve" smooth="yes"/>
      <point x="558" y="228" type="line"/>
      <point x="782" y="281"/>
      <point x="871" y="408"/>
      <point x="878" y="506" type="curve"/>
      <point x="878" y="515" type="line" smooth="yes"/>
      <point x="878" y="587"/>
      <point x="819" y="637"/>
      <point x="747" y="637" type="curve" smooth="yes"/>
      <point x="666" y="637"/>
      <point x="568" y="573"/>
      <point x="523" y="402" type="curve" smooth="yes"/>
      <point x="491" y="282" type="line"/>
      <point x="443" y="274"/>
      <point x="389" y="270"/>
      <point x="327" y="270" type="curve" smooth="yes"/>
      <point x="311" y="270"/>
      <point x="294" y="270"/>
      <point x="277" y="271" type="curve"/>
      <point x="308" y="368" type="line" smooth="yes"/>
      <point x="324" y="418"/>
      <point x="332" y="462"/>
      <point x="332" y="499" type="curve" smooth="yes"/>
      <point x="332" y="570"/>
      <point x="302" y="618"/>
      <point x="233" y="646" type="curve" smooth="yes"/>
      <point x="205" y="658"/>
      <point x="174" y="664"/>
      <point x="143" y="664" type="curve" smooth="yes"/>
      <point x="33" y="664"/>
      <point x="-80" y="590"/>
      <point x="-103" y="438" type="curve" smooth="yes"/>
      <point x="-103" y="435"/>
      <point x="-104" y="432"/>
      <point x="-104" y="430" type="curve" smooth="yes"/>
      <point x="-104" y="406"/>
      <point x="-87" y="392"/>
      <point x="-70" y="392" type="curve" smooth="yes"/>
      <point x="-53" y="392"/>
      <point x="-36" y="405"/>
      <point x="-30" y="437" type="curve" smooth="yes"/>
      <point x="-9" y="549"/>
      <point x="71" y="597"/>
      <point x="142" y="597" type="curve" smooth="yes"/>
      <point x="166" y="597"/>
      <point x="189" y="591"/>
      <point x="208" y="581" type="curve" smooth="yes"/>
      <point x="233" y="567"/>
      <point x="251" y="545"/>
      <point x="251" y="499" type="curve" smooth="yes"/>
      <point x="251" y="464"/>
      <point x="240" y="416"/>
      <point x="215" y="347" type="curve" smooth="yes"/>
      <point x="189" y="276" type="line"/>
      <point x="168" y="278"/>
      <point x="148" y="280"/>
      <point x="126" y="283" type="curve"/>
      <point x="122" y="283" type="line" smooth="yes"/>
      <point x="100" y="283"/>
      <point x="83" y="262"/>
      <point x="83" y="243" type="curve" smooth="yes"/>
      <point x="83" y="230"/>
      <point x="90" y="219"/>
      <point x="110" y="217" type="curve" smooth="yes"/>
      <point x="129" y="215"/>
      <point x="148" y="213"/>
      <point x="166" y="211" type="curve"/>
      <point x="84" y="-16" type="line" smooth="yes"/>
      <point x="77" y="-36"/>
      <point x="74" y="-52"/>
    </contour>
  </outline>
</glyph>
<glyph name="L" format="1">
  <advance width="622"/>
  <unicode hex="004C"/>
  <outline>
    <contour>
      <point x="409" y="-154" type="move" name="bot"/>
    </contour>
    <contour>
      <point x="582" y="671" type="move" name="top"/>
    </contour>
    <contour>
      <point x="929" y="452" type="move" name="caron.alt"/>
    </contour>
    <contour>
      <point x="483" y="414" type="line"/>
      <point x="490" y="549"/>
      <point x="523" y="603"/>
      <point x="597" y="625" type="curve" smooth="yes"/>
      <point x="617" y="631"/>
      <point x="635" y="634"/>
      <point x="652" y="634" type="curve" smooth="yes"/>
      <point x="716" y="634"/>
      <point x="755" y="594"/>
      <point x="755" y="549" type="curve" smooth="yes"/>
      <point x="755" y="487"/>
      <point x="683" y="414"/>
      <point x="504" y="414" type="curve" smooth="yes"/>
    </contour>
    <contour>
      <point x="353" y="53" type="curve"/>
      <point x="287" y="90"/>
      <point x="222" y="118"/>
      <point x="165" y="118" type="curve" smooth="yes"/>
      <point x="92" y="118"/>
      <point x="54" y="66"/>
      <point x="54" y="13" type="curve" smooth="yes"/>
      <point x="54" y="-44"/>
      <point x="98" y="-104"/>
      <point x="189" y="-104" type="curve" smooth="yes"/>
      <point x="267" y="-104"/>
      <point x="327" y="-80"/>
      <point x="371" y="-39" type="curve"/>
      <point x="492" y="-112"/>
      <point x="629" y="-205"/>
      <point x="740" y="-205" type="curve" smooth="yes"/>
      <point x="798" y="-205"/>
      <point x="850" y="-180"/>
      <point x="888" y="-112" type="curve" smooth="yes"/>
      <point x="892" y="-105"/>
      <point x="894" y="-99"/>
      <point x="894" y="-93" type="curve" smooth="yes"/>
      <point x="894" y="-79"/>
      <point x="884" y="-70"/>
      <point x="871" y="-70" type="curve" smooth="yes"/>
      <point x="862" y="-70"/>
      <point x="853" y="-74"/>
      <point x="844" y="-84" type="curve" smooth="yes"/>
      <point x="814" y="-120"/>
      <point x="778" y="-135"/>
      <point x="738" y="-135" type="curve" smooth="yes"/>
      <point x="645" y="-135"/>
      <point x="530" y="-55"/>
      <point x="416" y="15" type="curve"/>
      <point x="465" y="92"/>
      <point x="483" y="199"/>
      <point x="483" y="306" type="curve" smooth="yes"/>
      <point x="483" y="320"/>
      <point x="483" y="335"/>
      <point x="482" y="349" type="curve"/>
      <point x="510" y="349" type="line" smooth="yes"/>
      <point x="741" y="349"/>
      <point x="837" y="452"/>
      <point x="837" y="548" type="curve" smooth="yes"/>
      <point x="837" y="631"/>
      <point x="765" y="708"/>
      <point x="648" y="708" type="curve" smooth="yes"/>
      <point x="635" y="708"/>
      <point x="622" y="707"/>
      <point x="608" y="705" type="curve" smooth="yes"/>
      <point x="501" y="689"/>
      <point x="398" y="617"/>
      <point x="396" y="421" type="curve"/>
      <point x="362" y="426"/>
      <point x="325" y="433"/>
      <point x="285" y="442" type="curve" smooth="yes"/>
      <point x="282" y="443"/>
      <point x="280" y="443"/>
      <point x="277" y="443" type="curve" smooth="yes"/>
      <point x="257" y="443"/>
      <point x="244" y="423"/>
      <point x="244" y="405" type="curve" smooth="yes"/>
      <point x="244" y="393"/>
      <point x="249" y="383"/>
      <point x="262" y="380" type="curve" smooth="yes"/>
      <point x="310" y="369"/>
      <point x="355" y="361"/>
      <point x="396" y="356" type="curve"/>
      <point x="396" y="244"/>
      <point x="393" y="130"/>
    </contour>
    <contour>
      <point x="309" y="-3" type="curve"/>
      <point x="280" y="-27"/>
      <point x="241" y="-41"/>
      <point x="189" y="-41" type="curve" smooth="yes"/>
      <point x="149" y="-41"/>
      <point x="130" y="-15"/>
      <point x="130" y="9" type="curve" smooth="yes"/>
      <point x="130" y="28"/>
      <point x="143" y="46"/>
      <point x="167" y="46" type="curve" smooth="yes"/>
      <point x="168" y="46" type="line" smooth="yes"/>
      <point x="207" y="46"/>
      <point x="256" y="26"/>
    </contour>
  </outline>
</glyph>
<glyph name="R" format="1">
  <advance width="730"/>
  <unicode hex="0052"/>
  <outline>
    <contour>
      <point x="472" y="671" type="move" name="top"/>
    </contour>
    <contour>
      <point x="426" y="507" type="curve" smooth="yes"/>
      <point x="374" y="507"/>
      <point x="348" y="424"/>
      <point x="335" y="373" type="curve"/>
      <point x="316" y="376"/>
      <point x="298" y="378"/>
      <point x="291" y="378" type="curve" smooth="yes"/>
      <point x="275" y="378"/>
      <point x="271" y="361"/>
      <point x="271" y="349" type="curve" smooth="yes"/>
      <point x="271" y="326"/>
      <point x="293" y="314"/>
      <point x="325" y="308" type="curve"/>
      <point x="307" y="171"/>
      <point x="287" y="-55"/>
      <point x="239" y="-55" type="curve" smooth="yes"/>
      <point x="238" y="-55" type="line" smooth="yes"/>
      <point x="189" y="-55"/>
      <point x="163" y="49"/>
      <point x="162" y="205" type="curve" smooth="yes"/>
      <point x="162" y="443"/>
      <point x="263" y="620"/>
      <point x="442" y="620" type="curve" smooth="yes"/>
      <point x="573" y="620"/>
      <point x="618" y="562"/>
      <point x="618" y="495" type="curve" smooth="yes"/>
      <point x="618" y="487"/>
      <point x="617" y="478"/>
      <point x="616" y="469" type="curve" smooth="yes"/>
      <point x="604" y="391"/>
      <point x="545" y="370"/>
      <point x="412" y="368" type="curve"/>
      <point x="412" y="370"/>
      <point x="413" y="371"/>
      <point x="413" y="373" type="curve" smooth="yes"/>
      <point x="420" y="418"/>
      <point x="461" y="449"/>
      <point x="463" y="478" type="curve" smooth="yes"/>
      <point x="463" y="498"/>
      <point x="448" y="507"/>
    </contour>
    <contour>
      <point x="924" y="-96" type="curve" smooth="yes"/>
      <point x="924" y="-80"/>
      <point x="906" y="-63"/>
      <point x="890" y="-63" type="curve" smooth="yes"/>
      <point x="885" y="-63"/>
      <point x="881" y="-65"/>
      <point x="877" y="-69" type="curve" smooth="yes"/>
      <point x="844" y="-104"/>
      <point x="817" y="-113"/>
      <point x="793" y="-113" type="curve" smooth="yes"/>
      <point x="788" y="-113"/>
      <point x="782" y="-113"/>
      <point x="777" y="-112" type="curve" smooth="yes"/>
      <point x="700" y="-102"/>
      <point x="583" y="69"/>
      <point x="523" y="313" type="curve"/>
      <point x="619" y="329"/>
      <point x="701" y="363"/>
      <point x="716" y="474" type="curve" smooth="yes"/>
      <point x="717" y="481"/>
      <point x="717" y="489"/>
      <point x="717" y="496" type="curve" smooth="yes"/>
      <point x="717" y="601"/>
      <point x="616" y="705"/>
      <point x="438" y="705" type="curve" smooth="yes"/>
      <point x="235" y="705"/>
      <point x="83" y="522"/>
      <point x="75" y="198" type="curve" smooth="yes"/>
      <point x="75" y="185"/>
      <point x="74" y="173"/>
      <point x="74" y="161" type="curve" smooth="yes"/>
      <point x="74" y="-29"/>
      <point x="133" y="-135"/>
      <point x="223" y="-135" type="curve" smooth="yes"/>
      <point x="369" y="-135"/>
      <point x="373" y="73"/>
      <point x="403" y="303" type="curve"/>
      <point x="419" y="303"/>
      <point x="436" y="304"/>
      <point x="452" y="305" type="curve"/>
      <point x="482" y="86"/>
      <point x="625" y="-199"/>
      <point x="770" y="-199" type="curve" smooth="yes"/>
      <point x="846" y="-199"/>
      <point x="900" y="-140"/>
      <point x="921" y="-106" type="curve" smooth="yes"/>
      <point x="923" y="-103"/>
      <point x="924" y="-100"/>
    </contour>
  </outline>
</glyph>
<glyph name="T" format="1">
  <advance width="484"/>
  <unicode hex="0054"/>
  <outline>
    <contour>
      <point x="300" y="-104" type="move" name="bot"/>
    </contour>
    <contour>
      <point x="482" y="671" type="move" name="top"/>
    </contour>
    <contour>
      <point x="341" y="292" type="move" name="mid"/>
    </contour>
    <contour>
      <point x="304" y="-87" type="curve" smooth="yes"/>
      <point x="345" y="-87"/>
      <point x="360" y="-58"/>
      <point x="360" y="-10" type="curve" smooth="yes"/>
      <point x="360" y="12" type="line" smooth="yes"/>
      <point x="360" y="89"/>
      <point x="365" y="251"/>
      <point x="470" y="546" type="curve"/>
      <point x="520" y="543"/>
      <point x="579" y="541"/>
      <point x="632" y="541" type="curve" smooth="yes"/>
      <point x="689" y="541"/>
      <point x="740" y="543"/>
      <point x="768" y="551" type="curve" smooth="yes"/>
      <point x="798" y="559"/>
      <point x="808" y="577"/>
      <point x="808" y="601" type="curve" smooth="yes"/>
      <point x="807" y="617"/>
      <point x="791" y="627"/>
      <point x="769" y="627" type="curve" smooth="yes"/>
      <point x="614" y="627"/>
      <point x="465" y="645"/>
      <point x="338" y="645" type="curve" smooth="yes"/>
      <point x="161" y="645"/>
      <point x="37" y="608"/>
      <point x="-3" y="447" type="curve" smooth="yes"/>
      <point x="-4" y="444"/>
      <point x="-4" y="442"/>
      <point x="-4" y="439" type="curve" smooth="yes"/>
      <point x="-4" y="423"/>
      <point x="10" y="416"/>
      <point x="24" y="416" type="curve" smooth="yes"/>
      <point x="37" y="416"/>
      <point x="50" y="421"/>
      <point x="54" y="430" type="curve" smooth="yes"/>
      <point x="80" y="490"/>
      <point x="129" y="553"/>
      <point x="328" y="553" type="curve" smooth="yes"/>
      <point x="350" y="553"/>
      <point x="375" y="552"/>
      <point x="401" y="550" type="curve"/>
      <point x="272" y="280"/>
      <point x="250" y="91"/>
      <point x="250" y="6" type="curve" smooth="yes"/>
      <point x="250" y="-18"/>
      <point x="251" y="-34"/>
      <point x="253" y="-41" type="curve" smooth="yes"/>
      <point x="260" y="-67"/>
      <point x="273" y="-87"/>
    </contour>
  </outline>
</glyph>
<glyph name="Z" format="1">
  <advance width="585"/>
  <unicode hex="005A"/>
  <outline>
    <contour>
      <point x="522" y="671" type="move" name="top"/>
    </contour>
    <contour>
      <point x="715" y="33" type="curve" smooth="yes"/>
      <point x="715" y="54"/>
      <point x="701" y="67"/>
      <point x="687" y="67" type="curve" smooth="yes"/>
      <point x="679" y="67"/>
      <point x="671" y="64"/>
      <point x="664" y="60" type="curve" smooth="yes"/>
      <point x="604" y="19"/>
      <point x="557" y="2"/>
      <point x="510" y="2" type="curve" smooth="yes"/>
      <point x="438" y="2"/>
      <point x="366" y="43"/>
      <point x="253" y="101" type="curve"/>
      <point x="249" y="109" type="line"/>
      <point x="327" y="191"/>
      <point x="530" y="416"/>
      <point x="684" y="544" type="curve"/>
      <point x="735" y="545"/>
      <point x="783" y="551"/>
      <point x="783" y="590" type="curve" smooth="yes"/>
      <point x="783" y="619"/>
      <point x="754" y="626"/>
      <point x="729" y="627" type="curve" smooth="yes"/>
      <point x="603" y="629"/>
      <point x="470" y="645"/>
      <point x="350" y="645" type="curve" smooth="yes"/>
      <point x="187" y="645"/>
      <point x="68" y="611"/>
      <point x="29" y="447" type="curve" smooth="yes"/>
      <point x="28" y="444"/>
      <point x="28" y="441"/>
      <point x="28" y="439" type="curve" smooth="yes"/>
      <point x="28" y="423"/>
      <point x="41" y="416"/>
      <point x="55" y="416" type="curve" smooth="yes"/>
      <point x="67" y="416"/>
      <point x="80" y="421"/>
      <point x="84" y="430" type="curve" smooth="yes"/>
      <point x="110" y="493"/>
      <point x="160" y="551"/>
      <point x="380" y="551" type="curve" smooth="yes"/>
      <point x="445" y="551"/>
      <point x="522" y="548"/>
      <point x="585" y="546" type="curve"/>
      <point x="584" y="545"/>
      <point x="582" y="544"/>
      <point x="581" y="543" type="curve" smooth="yes"/>
      <point x="389" y="407"/>
      <point x="195" y="186"/>
      <point x="139" y="129" type="curve" smooth="yes"/>
      <point x="104" y="94"/>
      <point x="59" y="45"/>
      <point x="59" y="23" type="curve" smooth="yes"/>
      <point x="59" y="20"/>
      <point x="59" y="18"/>
      <point x="61" y="16" type="curve" smooth="yes"/>
      <point x="71" y="4"/>
      <point x="82" y="-1"/>
      <point x="96" y="-1" type="curve" smooth="yes"/>
      <point x="99" y="-1"/>
      <point x="103" y="-1"/>
      <point x="107" y="0" type="curve"/>
      <point x="193" y="51" type="line"/>
      <point x="290" y="1"/>
      <point x="388" y="-65"/>
      <point x="503" y="-65" type="curve" smooth="yes"/>
      <point x="561" y="-65"/>
      <point x="623" y="-48"/>
      <point x="692" y="-5" type="curve" smooth="yes"/>
      <point x="697" y="-2"/>
      <point x="715" y="13"/>
    </contour>
  </outline>
</glyph>
<glyph name="backslash" format="1">
  <advance width="426"/>
  <unicode hex="005C"/>
  <outline>
    <contour>
      <point x="360" y="-13" type="curve" smooth="yes"/>
      <point x="381" y="-13"/>
      <point x="396" y="-3"/>
      <point x="396" y="19" type="curve" smooth="yes"/>
      <point x="396" y="37"/>
      <point x="390" y="51"/>
      <point x="383" y="67" type="curve" smooth="yes"/>
      <point x="312" y="224"/>
      <point x="238" y="389"/>
      <point x="167" y="546" type="curve" smooth="yes"/>
      <point x="150" y="584"/>
      <point x="140" y="637"/>
      <point x="91" y="637" type="curve" smooth="yes"/>
      <point x="67" y="637"/>
      <point x="53" y="620"/>
      <point x="53" y="596" type="curve" smooth="yes"/>
      <point x="53" y="580"/>
      <point x="58" y="567"/>
      <point x="63" y="554" type="curve" smooth="yes"/>
      <point x="142" y="379"/>
      <point x="209" y="195"/>
      <point x="296" y="22" type="curve" smooth="yes"/>
      <point x="306" y="2"/>
      <point x="330" y="-13"/>
    </contour>
  </outline>
</glyph>
<glyph name="c" format="1">
  <advance width="274"/>
  <unicode hex="0063"/>
  <outline>
    <contour>
      <point x="136" y="0" type="move" name="bot"/>
    </contour>
    <contour>
      <point x="212" y="339" type="move" name="top"/>
    </contour>
    <contour>
      <point x="22" y="132" type="curve" smooth="yes"/>
      <point x="22" y="25"/>
      <point x="108" y="-6"/>
      <point x="162" y="-6" type="curve" smooth="yes"/>
      <point x="253" y="-6"/>
      <point x="321" y="55"/>
      <point x="354" y="105" type="curve" smooth="yes"/>
      <point x="357" y="110"/>
      <point x="358" y="115"/>
      <point x="358" y="120" type="curve" smooth="yes"/>
      <point x="358" y="134"/>
      <point x="348" y="148"/>
      <point x="337" y="148" type="curve" smooth="yes"/>
      <point x="333" y="148"/>
      <point x="329" y="146"/>
      <point x="325" y="142" type="curve" smooth="yes"/>
      <point x="284" y="97"/>
      <point x="232" y="52"/>
      <point x="172" y="52" type="curve" smooth="yes"/>
      <point x="127" y="52"/>
      <point x="96" y="81"/>
      <point x="96" y="131" type="curve" smooth="yes"/>
      <point x="96" y="227"/>
      <point x="152" y="266"/>
      <point x="187" y="266" type="curve" smooth="yes"/>
      <point x="203" y="266"/>
      <point x="217" y="256"/>
      <point x="217" y="243" type="curve" smooth="yes"/>
      <point x="217" y="214"/>
      <point x="204" y="211"/>
      <point x="204" y="197" type="curve" smooth="yes"/>
      <point x="204" y="183"/>
      <point x="214" y="169"/>
      <point x="229" y="169" type="curve" smooth="yes"/>
      <point x="250" y="169"/>
      <point x="284" y="209"/>
      <point x="284" y="251" type="curve" smooth="yes"/>
      <point x="284" y="292"/>
      <point x="249" y="330"/>
      <point x="191" y="330" type="curve" smooth="yes"/>
      <point x="87" y="330"/>
      <point x="22" y="221"/>
    </contour>
  </outline>
</glyph>
<glyph name="l" format="1">
  <advance width="249"/>
  <unicode hex="006C"/>
  <outline>
    <contour>
      <point x="426" y="455" type="move" name="caron.alt"/>
    </contour>
    <contour>
      <point x="155" y="-3" type="curve" smooth="yes"/>
      <point x="211" y="-3"/>
      <point x="262" y="21"/>
      <point x="317" y="83" type="curve" smooth="yes"/>
      <point x="325" y="92"/>
      <point x="329" y="101"/>
      <point x="329" y="109" type="curve" smooth="yes"/>
      <point x="329" y="126"/>
      <point x="313" y="138"/>
      <point x="299" y="138" type="curve" smooth="yes"/>
      <point x="293" y="138"/>
      <point x="287" y="136"/>
      <point x="282" y="131" type="curve" smooth="yes"/>
      <point x="248" y="92"/>
      <point x="208" y="61"/>
      <point x="171" y="61" type="curve" smooth="yes"/>
      <point x="134" y="61"/>
      <point x="123" y="99"/>
      <point x="123" y="142" type="curve" smooth="yes"/>
      <point x="123" y="158"/>
      <point x="125" y="175"/>
      <point x="127" y="191" type="curve"/>
      <point x="233" y="274"/>
      <point x="354" y="436"/>
      <point x="368" y="580" type="curve"/>
      <point x="368" y="588" type="line" smooth="yes"/>
      <point x="368" y="625"/>
      <point x="343" y="656"/>
      <point x="302" y="656" type="curve" smooth="yes"/>
      <point x="158" y="656"/>
      <point x="68" y="353"/>
      <point x="52" y="180" type="curve" smooth="yes"/>
      <point x="51" y="169"/>
      <point x="51" y="158"/>
      <point x="51" y="148" type="curve" smooth="yes"/>
      <point x="51" y="56"/>
      <point x="87" y="-3"/>
    </contour>
    <contour>
      <point x="135" y="264" type="curve"/>
      <point x="151" y="365"/>
      <point x="214" y="574"/>
      <point x="277" y="574" type="curve" smooth="yes"/>
      <point x="290" y="574"/>
      <point x="294" y="568"/>
      <point x="294" y="554" type="curve" smooth="yes"/>
      <point x="292" y="473"/>
      <point x="203" y="340"/>
    </contour>
  </outline>
</glyph>
<glyph name="r" format="1">
  <advance width="317"/>
  <unicode hex="0072"/>
  <outline>
    <contour>
      <point x="216" y="339" type="move" name="top"/>
    </contour>
    <contour>
      <point x="75" y="0" type="curve" smooth="yes"/>
      <point x="102" y="0"/>
      <point x="110" y="10"/>
      <point x="118" y="26" type="curve" smooth="yes"/>
      <point x="171" y="171"/>
      <point x="225" y="251"/>
      <point x="226" y="251" type="curve" smooth="yes"/>
      <point x="226" y="251"/>
      <point x="210" y="188"/>
      <point x="210" y="186" type="curve" smooth="yes"/>
      <point x="210" y="152"/>
      <point x="229" y="128"/>
      <point x="278" y="128" type="curve" smooth="yes"/>
      <point x="327" y="128"/>
      <point x="367" y="157"/>
      <point x="395" y="182" type="curve" smooth="yes"/>
      <point x="398" y="185"/>
      <point x="399" y="188"/>
      <point x="399" y="192" type="curve" smooth="yes"/>
      <point x="399" y="206"/>
      <point x="383" y="225"/>
      <point x="371" y="225" type="curve" smooth="yes"/>
      <point x="369" y="225"/>
      <point x="368" y="225"/>
      <point x="366" y="224" type="curve" smooth="yes"/>
      <point x="332" y="204"/>
      <point x="307" y="195"/>
      <point x="292" y="195" type="curve" smooth="yes"/>
      <point x="280" y="195"/>
      <point x="274" y="200"/>
      <point x="274" y="210" type="curve" smooth="yes"/>
      <point x="274" y="214"/>
      <point x="275" y="219"/>
      <point x="277" y="224" type="curve" smooth="yes"/>
      <point x="288" y="254"/>
      <point x="295" y="278"/>
      <point x="295" y="295" type="curve" smooth="yes"/>
      <point x="295" y="317"/>
      <point x="283" y="329"/>
      <point x="251" y="329" type="curve" smooth="yes"/>
      <point x="206" y="329"/>
      <point x="124" y="191"/>
      <point x="103" y="126" type="curve"/>
      <point x="113" y="179"/>
      <point x="133" y="261"/>
      <point x="141" y="294" type="curve" smooth="yes"/>
      <point x="142" y="297"/>
      <point x="142" y="299"/>
      <point x="142" y="302" type="curve" smooth="yes"/>
      <point x="142" y="317"/>
      <point x="130" y="330"/>
      <point x="113" y="330" type="curve" smooth="yes"/>
      <point x="89" y="330"/>
      <point x="76" y="317"/>
      <point x="65" y="285" type="curve" smooth="yes"/>
      <point x="47" y="225"/>
      <point x="34" y="143"/>
      <point x="34" y="74" type="curve" smooth="yes"/>
      <point x="34" y="66" type="line" smooth="yes"/>
      <point x="34" y="32"/>
      <point x="41" y="0"/>
    </contour>
  </outline>
</glyph>
<glyph name="s" format="1">
  <advance width="292"/>
  <unicode hex="0073"/>
  <outline>
    <contour>
      <point x="146" y="18" type="move" name="bot"/>
    </contour>
    <contour>
      <point x="216" y="339" type="move" name="top"/>
    </contour>
    <contour>
      <point x="176" y="-5" type="curve" smooth="yes"/>
      <point x="291" y="-5"/>
      <point x="368" y="38"/>
      <point x="404" y="95" type="curve" smooth="yes"/>
      <point x="406" y="99"/>
      <point x="408" y="103"/>
      <point x="408" y="108" type="curve" smooth="yes"/>
      <point x="408" y="127"/>
      <point x="391" y="149"/>
      <point x="376" y="149" type="curve" smooth="yes"/>
      <point x="372" y="149"/>
      <point x="368" y="147"/>
      <point x="364" y="143" type="curve" smooth="yes"/>
      <point x="352" y="128"/>
      <point x="313" y="78"/>
      <point x="266" y="63" type="curve"/>
      <point x="274" y="76"/>
      <point x="277" y="89"/>
      <point x="277" y="102" type="curve" smooth="yes"/>
      <point x="277" y="168"/>
      <point x="190" y="228"/>
      <point x="190" y="264" type="curve" smooth="yes"/>
      <point x="190" y="267"/>
      <point x="191" y="271"/>
      <point x="193" y="274" type="curve" smooth="yes"/>
      <point x="199" y="285"/>
      <point x="202" y="295"/>
      <point x="202" y="304" type="curve" smooth="yes"/>
      <point x="202" y="325"/>
      <point x="185" y="338"/>
      <point x="166" y="338" type="curve" smooth="yes"/>
      <point x="149" y="338"/>
      <point x="131" y="328"/>
      <point x="120" y="307" type="curve" smooth="yes"/>
      <point x="102" y="270"/>
      <point x="25" y="119"/>
      <point x="3" y="81" type="curve"/>
      <point x="26" y="35"/>
      <point x="90" y="-5"/>
    </contour>
    <contour>
      <point x="151" y="52" type="line" smooth="yes"/>
      <point x="130" y="52"/>
      <point x="108" y="66"/>
      <point x="91" y="79" type="curve"/>
      <point x="101" y="99"/>
      <point x="118" y="132"/>
      <point x="132" y="161" type="curve" smooth="yes"/>
      <point x="157" y="213" type="line"/>
      <point x="189" y="166"/>
      <point x="205" y="126"/>
      <point x="205" y="97" type="curve" smooth="yes"/>
      <point x="205" y="69"/>
      <point x="189" y="52"/>
      <point x="155" y="52" type="curve" smooth="yes"/>
    </contour>
  </outline>
</glyph>
<glyph name="u" format="1">
  <advance width="347"/>
  <unicode hex="0075"/>
  <outline>
    <contour>
      <point x="280" y="0" type="move" name="ogonek"/>
    </contour>
    <contour>
      <point x="216" y="339" type="move" name="top"/>
    </contour>
    <contour>
      <point x="18" y="99" type="curve" smooth="yes"/>
      <point x="18" y="42"/>
      <point x="43" y="-5"/>
      <point x="106" y="-5" type="curve" smooth="yes"/>
      <point x="168" y="-5"/>
      <point x="209" y="55"/>
      <point x="220" y="86" type="curve"/>
      <point x="217" y="55" type="line"/>
      <point x="218" y="15"/>
      <point x="236" y="-4"/>
      <point x="277" y="-4" type="curve" smooth="yes"/>
      <point x="327" y="-4"/>
      <point x="413" y="52"/>
      <point x="437" y="97" type="curve"/>
      <point x="439" y="111"/>
      <point x="417" y="131"/>
      <point x="400" y="131" type="curve" smooth="yes"/>
      <point x="393" y="131"/>
      <point x="392" y="128"/>
      <point x="383" y="121" type="curve" smooth="yes"/>
      <point x="373" y="110"/>
      <point x="330" y="65"/>
      <point x="300" y="63" type="curve" smooth="yes"/>
      <point x="292" y="63"/>
      <point x="286" y="68"/>
      <point x="286" y="86" type="curve" smooth="yes"/>
      <point x="286" y="89"/>
      <point x="287" y="94"/>
      <point x="287" y="98" type="curve" smooth="yes"/>
      <point x="296" y="182"/>
      <point x="323" y="270"/>
      <point x="332" y="297" type="curve" smooth="yes"/>
      <point x="332" y="298"/>
      <point x="333" y="300"/>
      <point x="333" y="301" type="curve" smooth="yes"/>
      <point x="333" y="316"/>
      <point x="315" y="330"/>
      <point x="299" y="330" type="curve" smooth="yes"/>
      <point x="276" y="330"/>
      <point x="265" y="326"/>
      <point x="251" y="279" type="curve"/>
      <point x="224" y="179" type="line" smooth="yes"/>
      <point x="202" y="101"/>
      <point x="157" y="61"/>
      <point x="124" y="61" type="curve" smooth="yes"/>
      <point x="101" y="61"/>
      <point x="90" y="80"/>
      <point x="90" y="110" type="curve" smooth="yes"/>
      <point x="90" y="117" type="line"/>
      <point x="96" y="204"/>
      <point x="142" y="286"/>
      <point x="142" y="305" type="curve" smooth="yes"/>
      <point x="142" y="319"/>
      <point x="127" y="330"/>
      <point x="108" y="330" type="curve" smooth="yes"/>
      <point x="92" y="330"/>
      <point x="81" y="326"/>
      <point x="73" y="313" type="curve" smooth="yes"/>
      <point x="63" y="296"/>
      <point x="18" y="192"/>
    </contour>
  </outline>
</glyph>
<glyph name="x" format="1">
  <advance width="326"/>
  <unicode hex="0078"/>
  <outline>
    <contour>
      <point x="253" y="-5" type="curve" smooth="yes"/>
      <point x="265" y="-8"/>
      <point x="275" y="-10"/>
      <point x="285" y="-10" type="curve" smooth="yes"/>
      <point x="358" y="-10"/>
      <point x="391" y="71"/>
      <point x="409" y="103" type="curve" smooth="yes"/>
      <point x="413" y="110"/>
      <point x="415" y="118"/>
      <point x="415" y="125" type="curve" smooth="yes"/>
      <point x="415" y="140"/>
      <point x="407" y="152"/>
      <point x="395" y="152" type="curve" smooth="yes"/>
      <point x="388" y="152"/>
      <point x="380" y="147"/>
      <point x="372" y="137" type="curve" smooth="yes"/>
      <point x="354" y="113"/>
      <point x="324" y="53"/>
      <point x="282" y="53" type="curve" smooth="yes"/>
      <point x="255" y="53"/>
      <point x="232" y="76"/>
      <point x="196" y="133" type="curve"/>
      <point x="285" y="251" type="line" smooth="yes"/>
      <point x="295" y="264"/>
      <point x="306" y="268"/>
      <point x="317" y="268" type="curve" smooth="yes"/>
      <point x="334" y="268"/>
      <point x="352" y="258"/>
      <point x="364" y="258" type="curve" smooth="yes"/>
      <point x="376" y="258"/>
      <point x="381" y="273"/>
      <point x="381" y="287" type="curve" smooth="yes"/>
      <point x="381" y="317"/>
      <point x="356" y="334"/>
      <point x="327" y="334" type="curve" smooth="yes"/>
      <point x="305" y="334"/>
      <point x="281" y="324"/>
      <point x="263" y="302" type="curve" smooth="yes"/>
      <point x="167" y="180" type="line"/>
      <point x="145" y="217"/>
      <point x="119" y="264"/>
      <point x="85" y="321" type="curve" smooth="yes"/>
      <point x="83" y="325"/>
      <point x="78" y="327"/>
      <point x="72" y="327" type="curve" smooth="yes"/>
      <point x="57" y="327"/>
      <point x="34" y="314"/>
      <point x="34" y="295" type="curve" smooth="yes"/>
      <point x="34" y="291"/>
      <point x="36" y="287"/>
      <point x="38" y="282" type="curve" smooth="yes"/>
      <point x="74" y="220"/>
      <point x="102" y="169"/>
      <point x="126" y="128" type="curve"/>
      <point x="97" y="94"/>
      <point x="73" y="69"/>
      <point x="53" y="55" type="curve" smooth="yes"/>
      <point x="42" y="48"/>
      <point x="38" y="38"/>
      <point x="38" y="28" type="curve" smooth="yes"/>
      <point x="38" y="7"/>
      <point x="56" y="-14"/>
      <point x="76" y="-14" type="curve" smooth="yes"/>
      <point x="85" y="-14"/>
      <point x="95" y="-9"/>
      <point x="103" y="3" type="curve" smooth="yes"/>
      <point x="120" y="29"/>
      <point x="136" y="54"/>
      <point x="155" y="80" type="curve"/>
      <point x="186" y="34"/>
      <point x="214" y="6"/>
    </contour>
  </outline>
</glyph>
<glyph name="section" format="1">
  <advance width="492"/>
  <unicode hex="00A7"/>
  <outline>
    <contour>
      <point x="233" y="-40" type="curve" smooth="yes"/>
      <point x="310" y="-40"/>
      <point x="391" y="-7"/>
      <point x="391" y="68" type="curve" smooth="yes"/>
      <point x="391" y="94"/>
      <point x="384" y="113"/>
      <point x="374" y="128" type="curve"/>
      <point x="398" y="147"/>
      <point x="420" y="173"/>
      <point x="420" y="214" type="curve" smooth="yes"/>
      <point x="420" y="278"/>
      <point x="363" y="309"/>
      <point x="321" y="332" type="curve" smooth="yes"/>
      <point x="296" y="346"/>
      <point x="221" y="370"/>
      <point x="221" y="405" type="curve" smooth="yes"/>
      <point x="221" y="435"/>
      <point x="253" y="448"/>
      <point x="284" y="448" type="curve" smooth="yes"/>
      <point x="323" y="448"/>
      <point x="365" y="431"/>
      <point x="365" y="393" type="curve" smooth="yes"/>
      <point x="365" y="385"/>
      <point x="362" y="376"/>
      <point x="362" y="369" type="curve" smooth="yes"/>
      <point x="362" y="353"/>
      <point x="375" y="341"/>
      <point x="391" y="341" type="curve" smooth="yes"/>
      <point x="417" y="341"/>
      <point x="429" y="366"/>
      <point x="429" y="394" type="curve" smooth="yes"/>
      <point x="429" y="463"/>
      <point x="364" y="510"/>
      <point x="294" y="510" type="curve" smooth="yes"/>
      <point x="218" y="510"/>
      <point x="135" y="481"/>
      <point x="135" y="409" type="curve" smooth="yes"/>
      <point x="135" y="380"/>
      <point x="149" y="361"/>
      <point x="165" y="346" type="curve"/>
      <point x="138" y="329"/>
      <point x="113" y="304"/>
      <point x="113" y="267" type="curve" smooth="yes"/>
      <point x="113" y="222"/>
      <point x="145" y="198"/>
      <point x="174" y="181" type="curve" smooth="yes"/>
      <point x="213" y="157"/>
      <point x="305" y="133"/>
      <point x="305" y="72" type="curve" smooth="yes"/>
      <point x="305" y="38"/>
      <point x="270" y="21"/>
      <point x="235" y="21" type="curve" smooth="yes"/>
      <point x="193" y="21"/>
      <point x="148" y="35"/>
      <point x="148" y="77" type="curve" smooth="yes"/>
      <point x="148" y="94"/>
      <point x="155" y="108"/>
      <point x="155" y="122" type="curve" smooth="yes"/>
      <point x="155" y="135"/>
      <point x="141" y="140"/>
      <point x="126" y="140" type="curve" smooth="yes"/>
      <point x="96" y="140"/>
      <point x="77" y="108"/>
      <point x="77" y="76" type="curve" smooth="yes"/>
      <point x="77" y="-4"/>
      <point x="152" y="-40"/>
    </contour>
    <contour>
      <point x="326" y="176" type="curve"/>
      <point x="316" y="182"/>
      <point x="307" y="189"/>
      <point x="296" y="194" type="curve" smooth="yes"/>
      <point x="270" y="208"/>
      <point x="189" y="231"/>
      <point x="189" y="269" type="curve" smooth="yes"/>
      <point x="189" y="288"/>
      <point x="200" y="301"/>
      <point x="211" y="311" type="curve"/>
      <point x="227" y="302"/>
      <point x="242" y="293"/>
      <point x="258" y="286" type="curve" smooth="yes"/>
      <point x="286" y="272"/>
      <point x="344" y="251"/>
      <point x="344" y="214" type="curve" smooth="yes"/>
      <point x="344" y="197"/>
      <point x="335" y="185"/>
    </contour>
  </outline>
</glyph>
<glyph name="ordfeminine" format="1">
  <advance width="317"/>
  <unicode hex="00AA"/>
  <outline>
    <contour>
      <point x="243" y="273" type="curve" smooth="yes"/>
      <point x="292" y="273"/>
      <point x="329" y="318"/>
      <point x="350" y="347" type="curve"/>
      <point x="336" y="413" type="line"/>
      <point x="314" y="383"/>
      <point x="295" y="341"/>
      <point x="252" y="341" type="curve" smooth="yes"/>
      <point x="240" y="341"/>
      <point x="240" y="356"/>
      <point x="240" y="371" type="curve" smooth="yes"/>
      <point x="240" y="420"/>
      <point x="258" y="460"/>
      <point x="258" y="508" type="curve" smooth="yes"/>
      <point x="258" y="535"/>
      <point x="247" y="536"/>
      <point x="222" y="536" type="curve" smooth="yes"/>
      <point x="198" y="536"/>
      <point x="202" y="558"/>
      <point x="181" y="558" type="curve" smooth="yes"/>
      <point x="167" y="558"/>
      <point x="154" y="555"/>
      <point x="141" y="549" type="curve" smooth="yes"/>
      <point x="78" y="521"/>
      <point x="22" y="447"/>
      <point x="22" y="358" type="curve" smooth="yes"/>
      <point x="22" y="311"/>
      <point x="50" y="274"/>
      <point x="96" y="274" type="curve" smooth="yes"/>
      <point x="136" y="274"/>
      <point x="169" y="300"/>
      <point x="188" y="322" type="curve"/>
      <point x="199" y="297"/>
      <point x="212" y="273"/>
    </contour>
    <contour>
      <point x="121" y="331" type="curve" smooth="yes"/>
      <point x="102" y="331"/>
      <point x="98" y="351"/>
      <point x="98" y="371" type="curve" smooth="yes"/>
      <point x="98" y="424"/>
      <point x="135" y="501"/>
      <point x="189" y="501" type="curve"/>
      <point x="171" y="415" type="line"/>
      <point x="166" y="386"/>
      <point x="153" y="331"/>
    </contour>
  </outline>
</glyph>
<glyph name="guillemotleft" format="1">
  <advance width="492"/>
  <unicode hex="00AB"/>
  <outline>
    <contour>
      <point x="218" y="30" type="curve" smooth="yes"/>
      <point x="225" y="26"/>
      <point x="233" y="24"/>
      <point x="241" y="24" type="curve" smooth="yes"/>
      <point x="261" y="24"/>
      <point x="278" y="37"/>
      <point x="278" y="54" type="curve" smooth="yes"/>
      <point x="278" y="82"/>
      <point x="250" y="94"/>
      <point x="235" y="107" type="curve" smooth="yes"/>
      <point x="144" y="186" type="line"/>
      <point x="255" y="264" type="line" smooth="yes"/>
      <point x="270" y="275"/>
      <point x="289" y="286"/>
      <point x="289" y="306" type="curve" smooth="yes"/>
      <point x="289" y="327"/>
      <point x="271" y="341"/>
      <point x="250" y="341" type="curve" smooth="yes"/>
      <point x="221" y="341"/>
      <point x="202" y="317"/>
      <point x="182" y="302" type="curve" smooth="yes"/>
      <point x="146" y="277"/>
      <point x="65" y="243"/>
      <point x="65" y="182" type="curve" smooth="yes"/>
      <point x="65" y="160"/>
      <point x="78" y="145"/>
      <point x="92" y="132" type="curve" smooth="yes"/>
      <point x="132" y="93"/>
      <point x="166" y="59"/>
    </contour>
    <contour>
      <point x="415" y="30" type="curve" smooth="yes"/>
      <point x="422" y="26"/>
      <point x="430" y="24"/>
      <point x="438" y="24" type="curve" smooth="yes"/>
      <point x="458" y="24"/>
      <point x="475" y="37"/>
      <point x="475" y="54" type="curve" smooth="yes"/>
      <point x="475" y="82"/>
      <point x="447" y="94"/>
      <point x="433" y="107" type="curve" smooth="yes"/>
      <point x="340" y="186" type="line"/>
      <point x="452" y="264" type="line" smooth="yes"/>
      <point x="467" y="275"/>
      <point x="486" y="286"/>
      <point x="486" y="306" type="curve" smooth="yes"/>
      <point x="486" y="327"/>
      <point x="468" y="341"/>
      <point x="447" y="341" type="curve" smooth="yes"/>
      <point x="418" y="341"/>
      <point x="399" y="317"/>
      <point x="379" y="302" type="curve" smooth="yes"/>
      <point x="343" y="277"/>
      <point x="263" y="243"/>
      <point x="263" y="182" type="curve" smooth="yes"/>
      <point x="263" y="160"/>
      <point x="274" y="145"/>
      <point x="289" y="132" type="curve" smooth="yes"/>
      <point x="329" y="93"/>
      <point x="363" y="59"/>
    </contour>
  </outline>
</glyph>
<glyph name="logicalnot" format="1">
  <advance width="416"/>
  <unicode hex="00AC"/>
  <outline>
    <contour>
      <point x="312" y="75" type="curve" smooth="yes"/>
      <point x="335" y="75"/>
      <point x="345" y="98"/>
      <point x="347" y="121" type="curve" smooth="yes"/>
      <point x="354" y="236" type="line"/>
      <point x="354" y="253"/>
      <point x="340" y="263"/>
      <point x="321" y="263" type="curve" smooth="yes"/>
      <point x="105" y="263" type="line" smooth="yes"/>
      <point x="81" y="263"/>
      <point x="58" y="251"/>
      <point x="58" y="228" type="curve" smooth="yes"/>
      <point x="58" y="207"/>
      <point x="78" y="197"/>
      <point x="100" y="197" type="curve" smooth="yes"/>
      <point x="286" y="197" type="line"/>
      <point x="281" y="118"/>
      <point x="281" y="117"/>
      <point x="281" y="115" type="curve" smooth="yes"/>
      <point x="281" y="93"/>
      <point x="291" y="75"/>
    </contour>
  </outline>
</glyph>
<glyph name="macron" format="1">
  <advance width="205"/>
  <unicode hex="00AF"/>
  <outline>
    <contour>
      <point x="64" y="458" type="move" name="_mid"/>
    </contour>
    <contour>
      <point x="76" y="339" type="move" name="_top"/>
    </contour>
    <contour>
      <point x="179" y="422" type="curve" smooth="yes"/>
      <point x="200" y="422"/>
      <point x="209" y="430"/>
      <point x="209" y="448" type="curve" smooth="yes"/>
      <point x="209" y="464"/>
      <point x="196" y="470"/>
      <point x="182" y="474" type="curve" smooth="yes"/>
      <point x="121" y="483"/>
      <point x="74" y="486"/>
      <point x="39" y="486" type="curve" smooth="yes"/>
      <point x="9" y="486"/>
      <point x="-12" y="484"/>
      <point x="-27" y="479" type="curve" smooth="yes"/>
      <point x="-59" y="470"/>
      <point x="-65" y="454"/>
      <point x="-65" y="440" type="curve" smooth="yes"/>
      <point x="-65" y="423"/>
      <point x="-57" y="409"/>
      <point x="-40" y="409" type="curve" smooth="yes"/>
      <point x="-38" y="409"/>
      <point x="-36" y="409"/>
      <point x="-33" y="410" type="curve" smooth="yes"/>
      <point x="0" y="417"/>
      <point x="26" y="425"/>
      <point x="90" y="425" type="curve" smooth="yes"/>
      <point x="113" y="425"/>
      <point x="144" y="422"/>
    </contour>
  </outline>
</glyph>
<glyph name="cedilla" format="1">
  <advance width="404"/>
  <unicode hex="00B8"/>
  <outline>
    <contour>
      <point x="231" y="77" type="move" name="_bot"/>
    </contour>
    <contour>
      <point x="183" y="-124" type="curve" smooth="yes"/>
      <point x="228" y="6" type="line" smooth="yes"/>
      <point x="229" y="8"/>
      <point x="229" y="9"/>
      <point x="229" y="11" type="curve" smooth="yes"/>
      <point x="229" y="18"/>
      <point x="225" y="23"/>
      <point x="219" y="23" type="curve" smooth="yes"/>
      <point x="215" y="23"/>
      <point x="211" y="20"/>
      <point x="206" y="14" type="curve" smooth="yes"/>
      <point x="120" y="-104" type="line" smooth="yes"/>
      <point x="114" y="-112"/>
      <point x="112" y="-119"/>
      <point x="112" y="-126" type="curve" smooth="yes"/>
      <point x="112" y="-143"/>
      <point x="128" y="-155"/>
      <point x="145" y="-155" type="curve" smooth="yes"/>
      <point x="160" y="-155"/>
      <point x="175" y="-146"/>
    </contour>
  </outline>
</glyph>
<glyph name="threequarters" format="1">
  <advance width="1083"/>
  <unicode hex="00BE"/>
  <outline>
    <contour>
      <point x="817" y="-20" type="curve" smooth="yes"/>
      <point x="837" y="-20"/>
      <point x="850" y="-16"/>
      <point x="858" y="21" type="curve"/>
      <point x="870" y="69" type="line"/>
      <point x="933" y="70" type="line" smooth="yes"/>
      <point x="954" y="71"/>
      <point x="965" y="92"/>
      <point x="965" y="110" type="curve" smooth="yes"/>
      <point x="965" y="123"/>
      <point x="959" y="135"/>
      <point x="946" y="135" type="curve" smooth="yes"/>
      <point x="884" y="135" type="line"/>
      <point x="892" y="167"/>
      <point x="917" y="268"/>
      <point x="923" y="297" type="curve" smooth="yes"/>
      <point x="923" y="299"/>
      <point x="924" y="300"/>
      <point x="924" y="302" type="curve" smooth="yes"/>
      <point x="924" y="316"/>
      <point x="909" y="321"/>
      <point x="894" y="321" type="curve" smooth="yes"/>
      <point x="869" y="321"/>
      <point x="857" y="309"/>
      <point x="851" y="288" type="curve" smooth="yes"/>
      <point x="844" y="263"/>
      <point x="815" y="157"/>
      <point x="811" y="136" type="curve"/>
      <point x="721" y="136" type="line"/>
      <point x="753" y="239"/>
      <point x="796" y="368"/>
      <point x="820" y="449" type="curve" smooth="yes"/>
      <point x="821" y="451"/>
      <point x="821" y="454"/>
      <point x="821" y="456" type="curve" smooth="yes"/>
      <point x="821" y="472"/>
      <point x="803" y="482"/>
      <point x="785" y="482" type="curve" smooth="yes"/>
      <point x="770" y="482"/>
      <point x="755" y="475"/>
      <point x="750" y="459" type="curve" smooth="yes"/>
      <point x="723" y="382"/>
      <point x="664" y="207"/>
      <point x="641" y="130" type="curve" smooth="yes"/>
      <point x="637" y="116"/>
      <point x="634" y="104"/>
      <point x="634" y="95" type="curve" smooth="yes"/>
      <point x="634" y="74"/>
      <point x="646" y="68"/>
      <point x="666" y="68" type="curve" smooth="yes"/>
      <point x="795" y="68" type="line"/>
      <point x="786" y="22" type="line" smooth="yes"/>
      <point x="785" y="16"/>
      <point x="784" y="11"/>
      <point x="784" y="6" type="curve" smooth="yes"/>
      <point x="784" y="-11"/>
      <point x="793" y="-20"/>
    </contour>
    <contour>
      <point x="406" y="-16" type="curve" smooth="yes"/>
      <point x="660" y="571" type="line" smooth="yes"/>
      <point x="662" y="576"/>
      <point x="663" y="581"/>
      <point x="663" y="586" type="curve" smooth="yes"/>
      <point x="663" y="605"/>
      <point x="648" y="621"/>
      <point x="630" y="621" type="curve" smooth="yes"/>
      <point x="618" y="621"/>
      <point x="604" y="613"/>
      <point x="595" y="593" type="curve" smooth="yes"/>
      <point x="341" y="20" type="line" smooth="yes"/>
      <point x="338" y="13"/>
      <point x="337" y="7"/>
      <point x="337" y="1" type="curve" smooth="yes"/>
      <point x="337" y="-22"/>
      <point x="357" y="-36"/>
      <point x="376" y="-36" type="curve" smooth="yes"/>
      <point x="388" y="-36"/>
      <point x="400" y="-30"/>
    </contour>
    <contour>
      <point x="351" y="592" type="curve" smooth="yes"/>
      <point x="351" y="662"/>
      <point x="291" y="695"/>
      <point x="219" y="695" type="curve" smooth="yes"/>
      <point x="163" y="695"/>
      <point x="111" y="671"/>
      <point x="79" y="632" type="curve" smooth="yes"/>
      <point x="76" y="628"/>
      <point x="75" y="624"/>
      <point x="75" y="619" type="curve" smooth="yes"/>
      <point x="75" y="604"/>
      <point x="88" y="586"/>
      <point x="105" y="586" type="curve" smooth="yes"/>
      <point x="113" y="586"/>
      <point x="122" y="589"/>
      <point x="131" y="599" type="curve" smooth="yes"/>
      <point x="150" y="620"/>
      <point x="179" y="631"/>
      <point x="205" y="631" type="curve" smooth="yes"/>
      <point x="238" y="631"/>
      <point x="267" y="613"/>
      <point x="267" y="576" type="curve" smooth="yes"/>
      <point x="267" y="523"/>
      <point x="216" y="496"/>
      <point x="155" y="496" type="curve" smooth="yes"/>
      <point x="127" y="496"/>
      <point x="115" y="486"/>
      <point x="115" y="468" type="curve" smooth="yes"/>
      <point x="115" y="449"/>
      <point x="125" y="438"/>
      <point x="141" y="438" type="curve" smooth="yes"/>
      <point x="216" y="438"/>
      <point x="280" y="409"/>
      <point x="280" y="349" type="curve" smooth="yes"/>
      <point x="280" y="280"/>
      <point x="241" y="254"/>
      <point x="197" y="254" type="curve" smooth="yes"/>
      <point x="156" y="254"/>
      <point x="112" y="276"/>
      <point x="92" y="305" type="curve" smooth="yes"/>
      <point x="84" y="317"/>
      <point x="73" y="322"/>
      <point x="62" y="322" type="curve" smooth="yes"/>
      <point x="42" y="322"/>
      <point x="21" y="304"/>
      <point x="21" y="284" type="curve" smooth="yes"/>
      <point x="21" y="278"/>
      <point x="23" y="272"/>
      <point x="27" y="266" type="curve" smooth="yes"/>
      <point x="59" y="217"/>
      <point x="118" y="187"/>
      <point x="191" y="187" type="curve" smooth="yes"/>
      <point x="194" y="187" type="line" smooth="yes"/>
      <point x="277" y="187"/>
      <point x="358" y="232"/>
      <point x="358" y="348" type="curve" smooth="yes"/>
      <point x="358" y="409"/>
      <point x="325" y="458"/>
      <point x="256" y="476" type="curve"/>
      <point x="320" y="489"/>
      <point x="351" y="545"/>
    </contour>
  </outline>
</glyph>
<glyph name="Oslash" format="1">
  <advance width="661"/>
  <unicode hex="00D8"/>
  <outline>
    <component base="O"/>
    <contour>
      <point x="113" y="-187" type="curve" smooth="yes"/>
      <point x="698" y="708" type="line" smooth="yes"/>
      <point x="702" y="714"/>
      <point x="704" y="719"/>
      <point x="704" y="724" type="curve" smooth="yes"/>
      <point x="704" y="736"/>
      <point x="693" y="743"/>
      <point x="682" y="743" type="curve" smooth="yes"/>
      <point x="674" y="743"/>
      <point x="666" y="740"/>
      <point x="662" y="731" type="curve"/>
      <point x="63" y="-152" type="line" smooth="yes"/>
      <point x="58" y="-161"/>
      <point x="55" y="-170"/>
      <point x="55" y="-177" type="curve" smooth="yes"/>
      <point x="55" y="-194"/>
      <point x="68" y="-204"/>
      <point x="83" y="-204" type="curve" smooth="yes"/>
      <point x="94" y="-204"/>
      <point x="105" y="-199"/>
    </contour>
  </outline>
</glyph>
<glyph name="eth" format="1">
  <advance width="372"/>
  <unicode hex="00F0"/>
  <outline>
    <contour>
      <point x="174" y="0" type="curve" smooth="yes"/>
      <point x="310" y="0"/>
      <point x="385" y="156"/>
      <point x="385" y="328" type="curve" smooth="yes"/>
      <point x="385" y="374"/>
      <point x="376" y="415"/>
      <point x="363" y="449" type="curve"/>
      <point x="404" y="467" type="line" smooth="yes"/>
      <point x="420" y="474"/>
      <point x="433" y="483"/>
      <point x="433" y="501" type="curve" smooth="yes"/>
      <point x="433" y="520"/>
      <point x="423" y="536"/>
      <point x="406" y="536" type="curve" smooth="yes"/>
      <point x="399" y="536"/>
      <point x="393" y="533"/>
      <point x="388" y="531" type="curve" smooth="yes"/>
      <point x="332" y="507" type="line"/>
      <point x="298" y="553"/>
      <point x="247" y="591"/>
      <point x="168" y="591" type="curve" smooth="yes"/>
      <point x="140" y="591"/>
      <point x="118" y="580"/>
      <point x="118" y="553" type="curve" smooth="yes"/>
      <point x="118" y="536"/>
      <point x="128" y="515"/>
      <point x="146" y="515" type="curve" smooth="yes"/>
      <point x="194" y="515"/>
      <point x="229" y="500"/>
      <point x="254" y="473" type="curve"/>
      <point x="197" y="449" type="line" smooth="yes"/>
      <point x="185" y="443"/>
      <point x="175" y="437"/>
      <point x="175" y="422" type="curve" smooth="yes"/>
      <point x="175" y="404"/>
      <point x="189" y="385"/>
      <point x="208" y="385" type="curve" smooth="yes"/>
      <point x="213" y="385"/>
      <point x="218" y="386"/>
      <point x="223" y="388" type="curve" smooth="yes"/>
      <point x="244" y="397"/>
      <point x="265" y="407"/>
      <point x="286" y="416" type="curve"/>
      <point x="294" y="391"/>
      <point x="298" y="363"/>
      <point x="298" y="329" type="curve"/>
      <point x="275" y="335"/>
      <point x="251" y="339"/>
      <point x="221" y="339" type="curve" smooth="yes"/>
      <point x="134" y="339"/>
      <point x="22" y="258"/>
      <point x="22" y="142" type="curve" smooth="yes"/>
      <point x="22" y="52"/>
      <point x="86" y="0"/>
    </contour>
    <contour>
      <point x="185" y="65" type="curve" smooth="yes"/>
      <point x="132" y="65"/>
      <point x="99" y="91"/>
      <point x="99" y="142" type="curve" smooth="yes"/>
      <point x="99" y="208"/>
      <point x="161" y="262"/>
      <point x="226" y="262" type="curve" smooth="yes"/>
      <point x="253" y="262"/>
      <point x="272" y="257"/>
      <point x="290" y="249" type="curve"/>
      <point x="279" y="191"/>
      <point x="250" y="65"/>
    </contour>
  </outline>
</glyph>
<glyph name="oslash" format="1">
  <advance width="322"/>
  <unicode hex="00F8"/>
  <outline>
    <component base="o"/>
    <contour>
      <point x="13" y="-49" type="curve" smooth="yes"/>
      <point x="111" y="88"/>
      <point x="233" y="242"/>
      <point x="405" y="359" type="curve" smooth="yes"/>
      <point x="411" y="363"/>
      <point x="413" y="369"/>
      <point x="413" y="375" type="curve" smooth="yes"/>
      <point x="413" y="386"/>
      <point x="405" y="398"/>
      <point x="392" y="398" type="curve" smooth="yes"/>
      <point x="387" y="398"/>
      <point x="381" y="396"/>
      <point x="374" y="391" type="curve" smooth="yes"/>
      <point x="207" y="274"/>
      <point x="91" y="108"/>
      <point x="-5" y="-24" type="curve" smooth="yes"/>
      <point x="-10" y="-31"/>
      <point x="-12" y="-37"/>
      <point x="-12" y="-42" type="curve" smooth="yes"/>
      <point x="-12" y="-51"/>
      <point x="-6" y="-56"/>
      <point x="1" y="-56" type="curve" smooth="yes"/>
      <point x="5" y="-56"/>
      <point x="10" y="-54"/>
    </contour>
  </outline>
</glyph>
<glyph name="IJ" format="1">
  <advance width="842"/>
  <unicode hex="0132"/>
  <outline>
    <contour>
      <point x="171" y="0" type="move" name="ogonek"/>
    </contour>
    <contour>
      <point x="337" y="34" type="curve" smooth="yes"/>
      <point x="337" y="59"/>
      <point x="318" y="61"/>
      <point x="292" y="61" type="curve" smooth="yes"/>
      <point x="276" y="61" type="line" smooth="yes"/>
      <point x="248" y="61"/>
      <point x="218" y="59"/>
      <point x="211" y="58" type="curve"/>
      <point x="222" y="176"/>
      <point x="339" y="553"/>
      <point x="352" y="578" type="curve"/>
      <point x="428" y="587"/>
      <point x="636" y="590"/>
      <point x="680" y="590" type="curve"/>
      <point x="823" y="586" type="line"/>
      <point x="776" y="390"/>
      <point x="634" y="-88"/>
      <point x="527" y="-88" type="curve" smooth="yes"/>
      <point x="473" y="-88"/>
      <point x="463" y="-5"/>
      <point x="457" y="86" type="curve" smooth="yes"/>
      <point x="456" y="109"/>
      <point x="440" y="122"/>
      <point x="425" y="122" type="curve" smooth="yes"/>
      <point x="410" y="122"/>
      <point x="396" y="109"/>
      <point x="396" y="81" type="curve" smooth="yes"/>
      <point x="396" y="-62"/>
      <point x="437" y="-174"/>
      <point x="540" y="-174" type="curve" smooth="yes"/>
      <point x="690" y="-174"/>
      <point x="817" y="267"/>
      <point x="898" y="585" type="curve"/>
      <point x="910" y="585"/>
      <point x="919" y="584"/>
      <point x="928" y="584" type="curve" smooth="yes"/>
      <point x="973" y="584"/>
      <point x="985" y="589"/>
      <point x="1021" y="598" type="curve" smooth="yes"/>
      <point x="1026" y="599"/>
      <point x="1037" y="620"/>
      <point x="1037" y="637" type="curve" smooth="yes"/>
      <point x="1037" y="650"/>
      <point x="1031" y="661"/>
      <point x="1009" y="661" type="curve" smooth="yes"/>
      <point x="983" y="661"/>
      <point x="951" y="661"/>
      <point x="915" y="662" type="curve"/>
      <point x="911" y="671"/>
      <point x="900" y="679"/>
      <point x="880" y="679" type="curve" smooth="yes"/>
      <point x="863" y="679"/>
      <point x="852" y="676"/>
      <point x="845" y="663" type="curve"/>
      <point x="758" y="664"/>
      <point x="661" y="664"/>
      <point x="575" y="664" type="curve" smooth="yes"/>
      <point x="476" y="664" type="line"/>
      <point x="446" y="663"/>
      <point x="195" y="657"/>
      <point x="169" y="655" type="curve" smooth="yes"/>
      <point x="151" y="653"/>
      <point x="141" y="626"/>
      <point x="141" y="605" type="curve" smooth="yes"/>
      <point x="141" y="575"/>
      <point x="162" y="574"/>
      <point x="198" y="574" type="curve" smooth="yes"/>
      <point x="204" y="574" type="line" smooth="yes"/>
      <point x="230" y="574"/>
      <point x="259" y="576"/>
      <point x="275" y="576" type="curve"/>
      <point x="216" y="445"/>
      <point x="159" y="227"/>
      <point x="134" y="55" type="curve"/>
      <point x="103" y="54"/>
      <point x="9" y="45"/>
      <point x="2" y="19" type="curve" smooth="yes"/>
      <point x="0" y="14"/>
      <point x="0" y="9"/>
      <point x="-0" y="4" type="curve" smooth="yes"/>
      <point x="0" y="-14"/>
      <point x="10" y="-30"/>
      <point x="28" y="-30" type="curve" smooth="yes"/>
      <point x="63" y="-30"/>
      <point x="203" y="-8"/>
      <point x="296" y="-4" type="curve" smooth="yes"/>
      <point x="325" y="-3"/>
      <point x="337" y="17"/>
    </contour>
  </outline>
</glyph>
<glyph name="circumflex" format="1">
  <advance width="295"/>
  <unicode hex="02C6"/>
  <outline>
    <contour>
      <point x="147" y="339" type="move" name="_top"/>
    </contour>
    <contour>
      <point x="228" y="443" type="line" smooth="yes"/>
      <point x="232" y="428"/>
      <point x="249" y="419"/>
      <point x="265" y="419" type="curve" smooth="yes"/>
      <point x="281" y="419"/>
      <point x="296" y="428"/>
      <point x="296" y="449" type="curve" smooth="yes"/>
      <point x="296" y="454"/>
      <point x="295" y="460"/>
      <point x="293" y="467" type="curve" smooth="yes"/>
      <point x="271" y="545" type="line"/>
      <point x="253" y="603"/>
      <point x="249" y="641"/>
      <point x="202" y="641" type="curve" smooth="yes"/>
      <point x="143" y="641"/>
      <point x="131" y="609"/>
      <point x="95" y="557" type="curve" smooth="yes"/>
      <point x="47" y="486" type="line" smooth="yes"/>
      <point x="41" y="477"/>
      <point x="40" y="470"/>
      <point x="40" y="462" type="curve" smooth="yes"/>
      <point x="41" y="446"/>
      <point x="55" y="438"/>
      <point x="71" y="438" type="curve" smooth="yes"/>
      <point x="84" y="438"/>
      <point x="99" y="444"/>
      <point x="107" y="456" type="curve" smooth="yes"/>
      <point x="190" y="579" type="line"/>
    </contour>
  </outline>
</glyph>
<glyph name="ring" format="1">
  <advance width="251"/>
  <unicode hex="02DA"/>
  <outline>
    <contour>
      <point x="177" y="524" type="move" name="top"/>
    </contour>
    <contour>
      <point x="116" y="339" type="move" name="_top"/>
    </contour>
    <contour>
      <point x="123" y="439" type="curve" smooth="yes"/>
      <point x="99" y="439"/>
      <point x="83" y="454"/>
      <point x="83" y="473" type="curve" smooth="yes"/>
      <point x="83" y="504"/>
      <point x="112" y="521"/>
      <point x="138" y="521" type="curve" smooth="yes"/>
      <point x="160" y="521"/>
      <point x="179" y="511"/>
      <point x="179" y="492" type="curve" smooth="yes"/>
      <point x="179" y="460"/>
      <point x="149" y="439"/>
    </contour>
    <contour>
      <point x="37" y="469" type="curve" smooth="yes"/>
      <point x="37" y="425"/>
      <point x="74" y="392"/>
      <point x="128" y="392" type="curve" smooth="yes"/>
      <point x="174" y="392"/>
      <point x="212" y="421"/>
      <point x="226" y="471" type="curve" smooth="yes"/>
      <point x="228" y="479"/>
      <point x="229" y="487"/>
      <point x="229" y="494" type="curve" smooth="yes"/>
      <point x="229" y="537"/>
      <point x="191" y="564"/>
      <point x="140" y="564" type="curve" smooth="yes"/>
      <point x="87" y="564"/>
      <point x="37" y="532"/>
    </contour>
  </outline>
</glyph>
<glyph name="uni030F" format="1">
  <advance width="205"/>
  <unicode hex="030F"/>
  <outline>
    <contour>
      <point x="166" y="339" type="move" name="_top"/>
    </contour>
    <contour>
      <point x="69" y="407" type="line" smooth="yes"/>
      <point x="74" y="401"/>
      <point x="81" y="399"/>
      <point x="88" y="399" type="curve" smooth="yes"/>
      <point x="100" y="399"/>
      <point x="111" y="407"/>
      <point x="111" y="419" type="curve" smooth="yes"/>
      <point x="111" y="423"/>
      <point x="110" y="427"/>
      <point x="107" y="431" type="curve" smooth="yes"/>
      <point x="-10" y="616" type="line" smooth="yes"/>
      <point x="-22" y="634"/>
      <point x="-38" y="642"/>
      <point x="-52" y="642" type="curve" smooth="yes"/>
      <point x="-74" y="642"/>
      <point x="-92" y="626"/>
      <point x="-92" y="604" type="curve" smooth="yes"/>
      <point x="-92" y="594"/>
      <point x="-88" y="582"/>
      <point x="-78" y="571" type="curve" smooth="yes"/>
    </contour>
    <contour>
      <point x="219" y="417" type="line" smooth="yes"/>
      <point x="224" y="410"/>
      <point x="230" y="408"/>
      <point x="237" y="408" type="curve" smooth="yes"/>
      <point x="249" y="408"/>
      <point x="260" y="417"/>
      <point x="260" y="429" type="curve" smooth="yes"/>
      <point x="260" y="433"/>
      <point x="259" y="437"/>
      <point x="257" y="441" type="curve" smooth="yes"/>
      <point x="175" y="616" type="line" smooth="yes"/>
      <point x="166" y="636"/>
      <point x="150" y="644"/>
      <point x="136" y="644" type="curve" smooth="yes"/>
      <point x="115" y="644"/>
      <point x="95" y="626"/>
      <point x="95" y="602" type="curve" smooth="yes"/>
      <point x="95" y="592"/>
      <point x="98" y="582"/>
      <point x="106" y="571" type="curve" smooth="yes"/>
    </contour>
  </outline>
</glyph>
<glyph name="uni0311" format="1">
  <advance width="205"/>
  <unicode hex="0311"/>
  <outline>
    <contour>
      <point x="87" y="339" type="move" name="_top"/>
    </contour>
    <contour>
      <point x="211" y="477" type="curve" smooth="yes"/>
      <point x="211" y="526"/>
      <point x="176" y="554"/>
      <point x="119" y="554" type="curve" smooth="yes"/>
      <point x="78" y="554"/>
      <point x="13" y="528"/>
      <point x="13" y="459" type="curve" smooth="yes"/>
      <point x="13" y="450"/>
      <point x="24" y="446"/>
      <point x="35" y="446" type="curve" smooth="yes"/>
      <point x="47" y="446"/>
      <point x="59" y="451"/>
      <point x="60" y="458" type="curve" smooth="yes"/>
      <point x="65" y="485"/>
      <point x="94" y="499"/>
      <point x="120" y="499" type="curve" smooth="yes"/>
      <point x="142" y="499"/>
      <point x="160" y="489"/>
      <point x="160" y="470" type="curve" smooth="yes"/>
      <point x="160" y="461" type="line" smooth="yes"/>
      <point x="160" y="449"/>
      <point x="171" y="443"/>
      <point x="183" y="443" type="curve" smooth="yes"/>
      <point x="203" y="443"/>
      <point x="211" y="455"/>
    </contour>
  </outline>
</glyph>
<glyph name="integral" format="1">
  <advance width="470"/>
  <unicode hex="222B"/>
  <outline>
    <contour>
      <point x="176" y="-44" type="curve" smooth="yes"/>
      <point x="330" y="-44"/>
      <point x="341" y="139"/>
      <point x="366" y="295" type="curve" smooth="yes"/>
      <point x="388" y="433"/>
      <point x="399" y="551"/>
      <point x="475" y="551" type="curve" smooth="yes"/>
      <point x="500" y="551"/>
      <point x="512" y="527"/>
      <point x="536" y="527" type="curve" smooth="yes"/>
      <point x="558" y="527"/>
      <point x="573" y="554"/>
      <point x="573" y="576" type="curve" smooth="yes"/>
      <point x="573" y="613"/>
      <point x="523" y="628"/>
      <point x="486" y="628" type="curve" smooth="yes"/>
      <point x="339" y="628"/>
      <point x="315" y="490"/>
      <point x="286" y="295" type="curve" smooth="yes"/>
      <point x="258" y="115"/>
      <point x="266" y="33"/>
      <point x="181" y="33" type="curve" smooth="yes"/>
      <point x="164" y="33"/>
      <point x="158" y="57"/>
      <point x="144" y="57" type="curve" smooth="yes"/>
      <point x="121" y="57"/>
      <point x="106" y="30"/>
      <point x="106" y="8" type="curve" smooth="yes"/>
      <point x="106" y="-27"/>
      <point x="142" y="-44"/>
    </contour>
  </outline>
</glyph>
